<mxfile host="app.diagrams.net" modified="2024-06-12T11:01:37.639Z" agent="Mozilla/5.0 (Windows NT 10.0; Win64; x64) AppleWebKit/537.36 (KHTML, like Gecko) Chrome/125.0.0.0 Safari/537.36" etag="ErRSYvR-4tzQoSyew-UJ" version="24.5.3" type="github">
  <diagram name="Page-1" id="BrXIxuP-WNWoSm8xleuP">
    <mxGraphModel dx="3288" dy="1924" grid="1" gridSize="10" guides="1" tooltips="1" connect="1" arrows="1" fold="1" page="1" pageScale="1" pageWidth="850" pageHeight="1100" math="0" shadow="0">
      <root>
        <mxCell id="0" />
        <mxCell id="1" parent="0" />
        <mxCell id="2" value="Database Layer" style="whiteSpace=wrap;strokeWidth=2;verticalAlign=top;" parent="1" vertex="1">
          <mxGeometry x="-980" y="-120" width="195" height="330" as="geometry" />
        </mxCell>
        <mxCell id="x3Joo1R1JY0LYGPKPf_2-11" value="" style="edgeStyle=orthogonalEdgeStyle;rounded=0;orthogonalLoop=1;jettySize=auto;html=1;" edge="1" parent="1" source="4">
          <mxGeometry relative="1" as="geometry">
            <mxPoint x="-340" y="40" as="targetPoint" />
          </mxGeometry>
        </mxCell>
        <mxCell id="x3Joo1R1JY0LYGPKPf_2-13" value="" style="edgeStyle=orthogonalEdgeStyle;rounded=0;orthogonalLoop=1;jettySize=auto;html=1;" edge="1" parent="1" source="4" target="x3Joo1R1JY0LYGPKPf_2-12">
          <mxGeometry relative="1" as="geometry" />
        </mxCell>
        <mxCell id="4" value="Application Layer" style="whiteSpace=wrap;strokeWidth=2;verticalAlign=top;" parent="1" vertex="1">
          <mxGeometry x="-660" y="-120" width="200" height="320" as="geometry" />
        </mxCell>
        <mxCell id="6" value="Presentation Layer" style="whiteSpace=wrap;strokeWidth=2;verticalAlign=top;" parent="1" vertex="1">
          <mxGeometry x="-220" y="-120" width="200" height="320" as="geometry" />
        </mxCell>
        <mxCell id="x3Joo1R1JY0LYGPKPf_2-12" value="Application Layer" style="whiteSpace=wrap;strokeWidth=2;verticalAlign=top;" vertex="1" parent="1">
          <mxGeometry x="-380" y="-50" width="80" height="180" as="geometry" />
        </mxCell>
      </root>
    </mxGraphModel>
  </diagram>
</mxfile>
